<?xml version="1.0" encoding="UTF-8" standalone="no"?>
<!-- Created with Inkscape (http://www.inkscape.org/) -->

<svg
   xmlns:dc="http://purl.org/dc/elements/1.1/"
   xmlns:cc="http://creativecommons.org/ns#"
   xmlns:rdf="http://www.w3.org/1999/02/22-rdf-syntax-ns#"
   xmlns:svg="http://www.w3.org/2000/svg"
   xmlns="http://www.w3.org/2000/svg"
   version="1.1"
   width="26"
   height="26"
   id="svg3848">
  <defs
     id="defs3850" />
  <metadata
     id="metadata3853">
    <rdf:RDF>
      <cc:Work
         rdf:about="">
        <dc:format>image/svg+xml</dc:format>
        <dc:type
           rdf:resource="http://purl.org/dc/dcmitype/StillImage" />
        <dc:title></dc:title>
      </cc:Work>
    </rdf:RDF>
  </metadata>
  <g
     transform="translate(0,-1026.3622)"
     id="layer1">
    <path
       d="m 15.329936,1046.8961 c 0,0 6.38434,-6.7321 4.64024,-8.2432 -1.7441,-1.511 -3.4674,1.0148 -3.4674,1.0148 0,0 3.61207,-5.7238 1.41024,-6.4925 -2.20183,-0.7687 -3.333629,4.3607 -3.333629,4.3607 0,0 0.872619,-5.7561 -1.05691,-5.7589 -1.92953,0 -1.57954,5.3912 -1.57954,5.3912 0,0 -0.57373,-4.5913 -2.1813307,-4.1233 -1.6076,0.4679 -0.57224,5.5129 -0.57224,5.5129 0,0 -1.57747,-4.8943 -2.92878,-3.7875 -1.35131,1.1068 0.25755,5.2518 0.57249,6.6247 0.83631,2.432 2.03322,2.9431 2.17178,5.5525"
       id="path2998-1"
       style="fill:#ffffff;fill-opacity:1;stroke:#000000;stroke-width:1px;stroke-linecap:butt;stroke-linejoin:miter;stroke-opacity:1" />
  </g>
</svg>
