<?xml version="1.0" encoding="UTF-8" standalone="no"?>
<!-- Created with Inkscape (http://www.inkscape.org/) -->

<svg
   xmlns:dc="http://purl.org/dc/elements/1.1/"
   xmlns:cc="http://creativecommons.org/ns#"
   xmlns:rdf="http://www.w3.org/1999/02/22-rdf-syntax-ns#"
   xmlns:svg="http://www.w3.org/2000/svg"
   xmlns="http://www.w3.org/2000/svg"
   version="1.1"
   width="26"
   height="26"
   id="svg3848">
  <defs
     id="defs3850" />
  <metadata
     id="metadata3853">
    <rdf:RDF>
      <cc:Work
         rdf:about="">
        <dc:format>image/svg+xml</dc:format>
        <dc:type
           rdf:resource="http://purl.org/dc/dcmitype/StillImage" />
        <dc:title></dc:title>
      </cc:Work>
    </rdf:RDF>
  </metadata>
  <g
     transform="translate(0,-1026.3622)"
     id="layer1">
    <path
       d="m 15.309269,1046.8843 c 0,0 5.07184,-5.2946 3.76524,-6.7432 -1.3066,-1.4485 -2.5299,0.1398 -2.5299,0.1398 0,0 2.73707,-3.2863 0.53524,-4.055 -2.20183,-0.7687 -2.52113,1.2982 -2.52113,1.2982 0,0 0.81012,-2.1309 -1.11941,-2.1339 -1.92953,0 -1.51704,1.7662 -1.51704,1.7662 0,0 -0.26123,-1.5911 -1.86883,-1.1233 -1.6076002,0.4679 -0.8740202,2.1701 -0.8740202,2.1701 0,0 -0.65069,-1.5515 -2.002,-0.4447 -1.35131,1.1068 -0.67995,2.2518 -0.36501,3.6247 0.83631,2.432 2.03322,2.9431 2.17178,5.5525"
       id="path2998-1-7"
       style="fill:#ffffff;fill-opacity:1;stroke:#000000;stroke-width:1px;stroke-linecap:butt;stroke-linejoin:miter;stroke-opacity:1" />
  </g>
</svg>
