<svg xmlns="http://www.w3.org/2000/svg" width="26" height="156">
<circle fill-opacity=".78" cy="117" cx="13" r="11" fill="#fff"/>
<circle fill-opacity=".78" cy="143" cx="13" r="11" fill="#fff"/>
<path d="m5 83v6h2v-4h4v-2h-6zm10 0v2h4v4h2v-6h-6zm-5 5v6h6v-6h-6zm-5 5v6h6v-2h-4v-4h-2zm14 0v4h-4v2h6v-6h-2z"/>
<path d="m13 110a7 7 0 0 0 -7 7 7 7 0 0 0 7 7 7 7 0 0 0 7 -7 7 7 0 0 0 -7 -7zm-1 3h2v2h-2v-2zm0 3h2v5h-2v-5z"/>
<path d="m5 57v6h2v-4h4v-2h-6zm10 0v2h4v4h2v-6h-6zm-10 10v6h6v-2h-4v-4h-2zm14 0v4h-4v2h6v-6h-2z"/>
<path d="m17 37.9998v2h-8v-2z"/>
<path d="m12 9v3h-3v2h3v3h2v-3h3v-2h-3v-3h-2z"/>
<path d="m13 136-6.125 6.125h4.375v7.875h3.5v-7.875h4.375z"/>
</svg>
