<svg xmlns="http://www.w3.org/2000/svg" height="135" width="81"><g stroke-width="0"><g opacity=".7"><g fill="#fff"><rect ry="8.9506" height="25" width="25" y="109" x="28"/><rect ry="8.9506" height="25" width="25" y="55" x="28"/><rect ry="8.9506" height="25" width="25" y="55" x="1"/><rect ry="8.9506" height="25" width="25" y="109" x="1"/><rect ry="8.9506" height="25" width="25" y="109" x="55"/><rect ry="8.9506" height="25" width="25" y="55" x="55"/></g><rect ry="8.9506" height="25" width="25" y="28" x="28"/><rect ry="8.9506" height="25" width="25" y="28" x="1"/><rect ry="8.9506" height="25" width="79" y="1" x="1"/><rect ry="8.9506" height="25" width="25" y="82" x="28"/><rect ry="8.9506" height="25" width="25" y="82" x="1"/><rect ry="8.9506" height="25" width="25" y="82" x="55"/><rect ry="8.9506" height="25" width="25" y="28" x="55"/></g><path d="m33.195 65.772h14.61v3.4559h-14.61z"/><path d="m6.1949 65.772h14.61v3.4559h-14.61z"/><path d="m15.228 60.195v14.61h-3.4559v-14.61z"/><path d="m32.513 113.49v7l2.4375-2.4375 2.4375 2.4375 2.125-2.0938-2.4688-2.4375 2.4688-2.4688h-7z"/><path d="m48.5 113.51h-7l2.4375 2.4375-2.4375 2.4375 2.0938 2.125 2.4375-2.4688 2.468 2.46v-7z"/><path d="m48.5 129.51v-7l-2.4375 2.4375-2.4375-2.4375-2.125 2.0938 2.4688 2.4375-2.468 2.47h7z"/><path d="m32.5 129.51h7l-2.4375-2.4375 2.4375-2.4375-2.0938-2.125-2.4375 2.4688-2.468-2.46v7z"/><path d="m12.513 120.49v-7l-2.4375 2.4375-2.4375-2.4375-2.125 2.0938 2.4687 2.4375-2.4687 2.4688h6.9995z"/><path d="m14.5 120.51h7l-2.4375-2.4375 2.4375-2.4375-2.0938-2.125-2.4375 2.4688-2.4688-2.4688 0.001 7.01z"/><path d="m14.5 122.51v7l2.4375-2.4375 2.4375 2.4375 2.125-2.0938-2.4688-2.4375 2.4688-2.4688h-7.001z"/><path d="m12.5 122.51h-7l2.4375 2.4375-2.4375 2.4375 2.0938 2.125 2.4375-2.4688 2.4688 2.4688v-7.01z"/><path d="m67.525 112.45c-1.025 0-1.8 0.8-1.8 1.875 0 1.1 0.825 1.85 1.825 1.85 1.05 0 1.85-0.775 1.85-1.9 0-1.03-0.75-1.83-1.875-1.83zm0.275 5.7-3.525 1.175v1h1.65v8.625l-0.35 0.375-1.35 0.1v1.125h6.55v-1.125l-1.4-0.1-0.375-0.375v-10.8l-1.2 0.01z"/><path d="m67.5 59.4-9.5248 9.5248h6.6334v6.6334l5.7404 0.04253-0.04253-6.6759h6.7184l-9.523-9.525z"/><g fill="#fff"><path d="m33.195 38.772h14.61v3.4559h-14.61z"/><path d="m6.1949 38.772h14.61v3.4559h-14.61z"/><path d="m15.228 33.195v14.61h-3.4559v-14.61z"/><path d="m5.3528 21.132v-0.57569l0.86377-0.0801 0.27197-0.25586v-9.2803h-1.1357v-0.49609l1.856-0.57568h0.60791v0.87988c0.84277-0.63997 1.6268-0.95996 2.352-0.95996 0.88541 0 1.6187 0.34668 2.2 1.04 0.58121 0.69336 0.87182 1.5947 0.87183 2.7041-0.000008 1.2585-0.35995 2.2664-1.0798 3.0237-0.7199 0.75732-1.672 1.136-2.8562 1.136-0.40528 0-0.90121-0.048-1.4878-0.14405v2.6724l0.27197 0.25586 1.0239 0.0801-0.0002 0.576zm2.4639-4.416c0.51204 0.1709 0.96533 0.25635 1.3599 0.25635 0.78938 0 1.4294-0.29338 1.9202-0.88013 0.49072-0.58675 0.73608-1.3707 0.73608-2.3518-0.000007-0.9069-0.21339-1.6244-0.64014-2.1524-0.427-0.528-0.992-0.792-1.6962-0.792-0.4909 0-1.0509 0.181-1.6802 0.544z"/><path d="m18.342 16.716c-1.0134 0.69336-1.888 1.04-2.624 1.04-0.62956 0-1.1283-0.18929-1.4963-0.56787-0.369-0.379-0.553-0.872-0.553-1.48 0-0.77864 0.33333-1.352 1-1.72 0.66666-0.368 1.8908-0.76538 3.6724-1.1921v-0.51172c-0.000006-0.65071-0.10401-1.112-0.31201-1.384-0.20801-0.27197-0.59473-0.40795-1.1602-0.40796-0.39486 0.00001-0.8003 0.0853-1.2163 0.25586v1.3442h-1.104c-0.18132 0-0.30925-0.0347-0.38379-0.10401-0.07455-0.0693-0.11182-0.20002-0.11182-0.39209-0.000001-0.50129 0.29329-0.92797 0.87988-1.28 0.58659-0.35204 1.3706-0.52807 2.352-0.52807 0.84244 0 1.4504 0.18132 1.8237 0.54394 0.37337 0.36264 0.56005 0.94939 0.56006 1.7603v4.6396l0.28809 0.25635 0.84814 0.0796v0.57617h-2.255zm0-0.54394v-2.8159c-1.2269 0.34147-2.0776 0.65886-2.5522 0.95215-0.47461 0.29329-0.71192 0.71728-0.71191 1.272-0.000003 0.39453 0.11466 0.71183 0.34399 0.9519 0.22933 0.24008 0.54126 0.36011 0.93579 0.36011 0.49 0 1.152-0.24 1.984-0.72z"/><path d="m21.602 17.644v-0.57617l0.86426-0.0796 0.27197-0.25635v-5.792h-1.1362v-0.49609l1.856-0.57568h0.60792v0.87988c1.1628-0.63997 2.0215-0.95996 2.5762-0.95996 0.70409 0 1.2401 0.20533 1.6082 0.61596 0.368 0.41066 0.552 1.016 0.552 1.8162v4.5117l0.27198 0.25635 0.86377 0.0796v0.57617h-3.5039v-0.57617l0.76807-0.0796 0.27197-0.25635v-4.2397c-0.00001-0.58691-0.12265-1.0083-0.36792-1.2642-0.24529-0.25585-0.66138-0.38378-1.2483-0.38379-0.51205 0.00001-1.1094 0.17595-1.792 0.52783v5.3599l0.27197 0.25635 0.76806 0.0796v0.576z"/><path d="m30.696 17.644v-0.57617l0.86426-0.0796 0.27197-0.25635v-5.792h-1.1362v-0.49609l1.856-0.57568h0.60792v0.87988c1.1628-0.63997 2.0215-0.95996 2.5762-0.95996 0.70409 0 1.2401 0.20533 1.6082 0.61596 0.368 0.41066 0.552 1.016 0.552 1.8162v4.5117l0.27198 0.25635 0.86377 0.0796v0.57617h-3.5039v-0.57617l0.76807-0.0796 0.27197-0.25635v-4.2397c-0.00001-0.58691-0.12265-1.0083-0.36792-1.2642-0.24529-0.25585-0.66138-0.38378-1.2483-0.38379-0.51205 0.00001-1.1094 0.17595-1.792 0.52783v5.3599l0.27197 0.25635 0.76806 0.0796v0.576z"/><path d="m45.477 15.948v0.87989c-0.95997 0.63997-1.9626 0.95996-3.0078 0.95996-1.056 0-1.9147-0.36271-2.5762-1.0881-0.66146-0.72542-0.99219-1.6747-0.99219-2.8479 0-1.2054 0.34668-2.1841 1.04-2.936 0.69336-0.75195 1.5788-1.1279 2.6562-1.1279 0.87467 0 1.5733 0.28003 2.096 0.84008 0.52262 0.56007 0.78393 1.3307 0.78394 2.3118-0.00001 0.21355-0.005 0.37891-0.0161 0.4961h-5.1841v0.17578c0 1.0134 0.24267 1.8107 0.72803 2.3921 0.48535 0.58138 1.1387 0.87207 1.96 0.87207 0.747 0 1.584-0.309 2.513-0.928zm-1.4238-3.1841v-0.25635c-0.00001-0.65038-0.14405-1.1463-0.43213-1.4878-0.28809-0.34146-0.69874-0.5122-1.2319-0.51221-0.52279 0.00001-0.98153 0.2107-1.3762 0.63208-0.394 0.421-0.613 0.963-0.656 1.624z"/><path d="m45.901 17.644v-0.57617l0.94385-0.0796 0.27197-0.25635v-9.792h-1.2319v-0.49609l1.9517-0.57568h0.60839v10.864l0.2876 0.25635 0.91211 0.0796v0.576z"/><path d="m50.401 17.644v-0.57617l0.94385-0.0796 0.27197-0.25635v-9.792h-1.2319v-0.49609l1.9517-0.57568h0.60839v10.864l0.2876 0.25635 0.91211 0.0796v0.576z"/><path d="m55.625 9.7881h0.60791v5.2959c0 0.57617 0.12532 1.0029 0.37598 1.2803 0.25064 0.27734 0.64273 0.41602 1.1763 0.41601 0.58658 0.00001 1.2052-0.16015 1.856-0.48046v-5.4238h-1.1362v-0.4961l1.856-0.59179h0.6084v6.9438l0.2876 0.25635 0.75195 0.0796v0.57617h-2.3677v-0.89599c-0.98145 0.7041-1.8455 1.0562-2.5923 1.0562-0.69336 0-1.224-0.20801-1.592-0.62402-0.36801-0.41602-0.55201-1.0241-0.552-1.8242v-4.48h-1.1358v-0.496z"/><path d="m69.711 10.86c1.2158-0.71451 2.1331-1.0718 2.752-1.0718 0.63996 0 1.144 0.2107 1.512 0.63208 0.36799 0.42139 0.55199 1.0214 0.55201 1.8v4.5117l0.27197 0.25635 0.84814 0.0796v0.57617h-3.4883v-0.57617l0.75195-0.0796 0.28809-0.25635v-4.2397c-0.00001-1.0986-0.47999-1.6479-1.4399-1.648-0.48015 0.00001-1.0828 0.17595-1.8081 0.52783v5.3599l0.28809 0.25635 0.75195 0.0796v0.57617h-3.4077v-0.57617l0.76758-0.0796 0.27197-0.25635v-4.2397c-0.00001-1.0986-0.46925-1.6479-1.4077-1.648-0.51204 0.00001-1.1201 0.17595-1.8242 0.52783v5.3599l0.27197 0.25635 0.76806 0.0796v0.57617h-3.5039v-0.57617l0.86426-0.0796 0.27197-0.25635v-5.792h-1.1362v-0.49609l1.856-0.57568h0.60792v0.87988c1.0882-0.63997 1.9416-0.95996 2.56-0.95996 0.8 0.0001 1.387 0.357 1.76 1.072z"/><path d="m32.513 86.486v7l2.4375-2.4375 2.4375 2.4375 2.125-2.0938-2.4688-2.4375 2.4688-2.4688-7 0.001z"/><path d="m48.5 86.5h-7l2.4375 2.4375-2.4375 2.4375 2.0938 2.125 2.4375-2.4688 2.468 2.468v-7z"/><path d="m48.5 102.5v-7l-2.4375 2.4375-2.437-2.438-2.125 2.094 2.469 2.436-2.469 2.47h7z"/><path d="m32.5 102.5h7l-2.4375-2.4375 2.438-2.435-2.094-2.125-2.437 2.469-2.469-2.469v7z"/><path d="m12.513 93.486v-7l-2.4375 2.4375-2.4375-2.4375-2.125 2.0938 2.4687 2.4375-2.4695 2.468h7.0003z"/><path d="m14.5 93.5h7l-2.4375-2.4375 2.4375-2.4375-2.0938-2.125-2.4375 2.4688-2.4688-2.4688 0.001 7.001z"/><path d="m14.5 95.5v7l2.4375-2.4375 2.4375 2.4375 2.125-2.0938-2.4688-2.4375 2.4688-2.4688-7.001-0.003z"/><path d="m12.5 95.5h-7l2.4375 2.4375-2.4375 2.442 2.0937 2.12 2.4373-2.47 2.469 2.47v-7z"/><path d="m67.525 85.45c-1.025 0-1.8 0.8-1.8 1.875 0 1.1 0.825 1.85 1.825 1.85 1.05 0 1.85-0.775 1.85-1.9 0-1.025-0.75-1.825-1.875-1.825zm0.275 5.7-3.525 1.175v1h1.65v8.625l-0.35 0.375-1.35 0.1v1.125h6.55v-1.125l-1.4-0.1-0.375-0.375v-10.8l-1.2 0.01z"/><path d="m67.5 32.4-9.5248 9.5248h6.6334v6.6334l5.7404 0.04253-0.04253-6.6759h6.7184l-9.523-9.525z"/></g></g></svg>
